<svg version="1" xmlns="http://www.w3.org/2000/svg" width="682.667" height="682.667" viewBox="0 0 512.000000 512.000000"><path d="M253 25c-19.5 2.3-34.8 5.6-51.4 11.2C143.1 55.7 93.7 98.6 66.1 153.7c-3.4 6.7-6.1 12.5-6.1 12.8 0 .3-.9 2.4-1.9 4.8-3.4 7.3-8.8 24.7-11.4 36.7-4.4 19.8-5.1 27.3-5.2 50.5 0 20.6.8 30.8 3.6 45 .5 2.7 1.1 5.9 1.3 7 3 15.6 14.1 45.1 23.3 61.8 17 30.8 41.3 58.1 69.3 77.9 5.8 4.1 23.5 14.8 24.5 14.8.3 0 4 1.7 8.3 3.9 14.9 7.2 35.8 13.3 61.2 17.6 7.8 1.4 42.6 1.4 52 .1 31.2-4.4 55.3-12.4 80-26.4 47.5-27.1 82.7-71.5 98.5-124.1 2.5-8.4 4.9-19.1 5.9-26.6.3-2.2 1-6.9 1.5-10.5.9-6.5.8-45.6-.2-49.6-.3-1.2-.8-4.5-1.2-7.5-1.2-9.4-7.4-31.9-12.1-43.9-10.6-26.6-26.3-50.7-46.4-71.1-54.6-55.4-137.3-71.7-208.8-41.3-46.3 19.8-83.4 58.1-102 105.4-2.5 6.3-3.3 8.9-4.7 14 0 .3-.8 3-1.7 6-6 20-8.1 57.1-4.4 75.5.2 1.1.7 4 1.1 6.5 1.2 8.3 6.4 26.4 10 35.5 17.1 42.7 47.8 76.8 86.2 95.9 12.8 6.4 30.9 12.5 41.8 14.1 2.2.4 4.7.8 5.5 1 6.6 1.8 33 2.5 42.5 1.3 12.5-1.7 14.2-2 22.2-3.9 41.3-9.8 77.3-35.4 100.6-71.5 9.7-14.9 18.7-36.2 22.2-52.3.3-1.1.7-2.9.9-3.8.4-1.9 1.1-6.6 2.2-14.3 1.8-13.2.6-42.6-2.2-52.2-.3-1-.7-3-1-4.5-2-11.8-11-33.9-19.2-47.5-33.6-55.6-90.9-82.3-153.2-71.3-16.8 3-37.5 11.7-54 22.9-10.3 6.9-29.3 26.1-36.3 36.7-12.4 18.7-20.5 39.4-23.4 59.9-1 6.8-1 32.7-.1 39.5 4.4 32.1 20 62.6 43.2 84.2 17.2 16.1 39 26.9 62.6 31 5.8 1 31.2 1 37 0 9.2-1.5 10.7-1.9 19.2-4.7 38.2-12.8 66.6-42.6 77.9-81.8 1-3.4 1.8-6.5 1.7-6.7 0-.6 1.2-7.6 1.8-11 .7-3.4.6-20.6-.2-27.5-3.7-35.9-28-72.7-57.9-87.8-31.7-15.9-68.2-14-96.8 5.2-28.3 19-43.8 48.6-43.1 82.1.3 13.2 2.2 22.4 7.1 34.5 7 16.9 18.9 31.8 32.5 40.7 27.8 18.1 64.6 15 88.8-7.4 7.2-6.6 14.3-16.4 17.8-24.4 4.8-11.2 7.1-28.8 5-39.7-.4-2.6-1.1-6-1.4-7.5-1.6-9.5-9.8-23.7-18.5-32.6-19.8-19.9-50.8-20.2-70.4-.5-5.8 5.8-11.5 15.4-13.1 22.1-1.3 5.2-1.3 20 0 24.9 3.5 13.2 13.4 25.8 22.7 28.9 9.8 3.3 20.2.9 27.2-6.2 5.6-5.6 7.2-9.7 7.2-18.8 0-6.9-.4-8.6-2.8-12.7-3.1-5.3-5.6-7.1-7.8-5.8-1.9 1.3-1.9 3.1.2 5.5 2.8 3.1 4.9 9 4.9 13.5 0 11.4-10.3 20.8-21.9 19.8-6.5-.5-12.5-4.6-17.4-12.1-10.4-15.6-9.9-35.6 1.1-50.3 8.2-10.8 19.3-16.5 33.2-17 17.5-.7 31.8 8 42.3 25.8 7.8 13.1 11.1 31.1 8.2 45-.7 3.2-1.1 5.8-.9 5.8.1 0-1 3.1-2.6 6.9-12.7 31-43.7 47.7-76 41-20.8-4.3-38.8-19.3-50-41.8-6.5-13-9.4-25.5-9.2-40.6.4-48.3 39.9-88.2 87.7-88.7 5.5-.1 12 .2 14.5.5 12.6 1.9 26.8 7.5 38.5 15.3 11.8 7.8 26.3 25 33.9 40.2 3.7 7.4 8.5 22.1 10.1 31.1 1.3 7.3 1.5 32.9.2 37.6-.3 1.1-1 4.2-1.6 7-4.6 20.3-15.1 38.8-31 54.5-13.1 13-25.4 20.9-41.1 26.3-14.9 5.1-22.2 6.2-40.5 6.1-11.6-.1-15.8-.5-24.1-2.6-21.4-5.5-37.9-15-54-31.2-19-19.1-30.8-41.1-36.6-67.9-2.9-13.6-3.1-39.9-.5-52.6 12.9-60.5 59.2-103.3 119.7-110.2 9.7-1.1 28.2-.8 35.5.6 30 5.7 53.4 17.5 73.8 37.4 31.8 30.8 49 72.9 48.1 117.4-1.2 64.2-41.2 121.3-101.6 145.2-5.1 2.1-10.1 3.9-11.2 4.1-1 .2-4.2 1-7 1.8s-6.7 1.7-8.6 2c-1.9.3-4.6.8-6 1.1-4.3.9-17.2 1.9-25 1.9-74.6.1-139.7-52.5-160.4-129.5-1.4-5.2-2.8-11.4-3.1-13.9-.4-2.4-.8-4.7-1-5.1-.6-.9-1.8-19.4-1.9-27.4 0-7.3 1-21.8 1.9-27 4.6-26 11.5-45.5 23-65 38-64.6 110.8-99.8 184-89 39.1 5.8 74.1 23.2 102 50.8 12 12 19.3 20.8 27.7 33.7 31.1 47.5 41.2 105.1 28.1 160.5-4.1 17.4-7.7 27.3-16.3 44.6-16.3 32.7-40.6 59.9-71.6 80.2-9.9 6.5-25.7 14.8-35.8 18.9-15.1 6.1-38 11.8-55.1 13.7-9.9 1.1-42.1.6-49.5-.8-3-.5-7.3-1.3-9.5-1.6-14.9-2.1-41.7-11.4-58.3-20.2-53.7-28.4-94.7-81.6-110.1-142.9-1.6-6.5-3.3-14.2-3.7-16.9-.3-2.8-.8-5.3-1-5.6-1.7-2.9-2.5-45.5-1.1-57.9 5.1-45 22.6-86.4 51.6-122 10.9-13.3 30.6-31.3 46.1-42.1 28.4-19.8 64.3-33.9 98-38.5 19.4-2.7 48.5-2.6 66.7.2 37.4 5.7 75.1 21.8 105.8 45.3 5.7 4.3 7.5 5.9 18.5 16 4.7 4.3 7.4 5.1 8.4 2.5 1-2.6-3.5-7.2-18.9-19.8C401.8 58 375 43.6 347 34.8c-11.2-3.4-28-7.3-36.5-8.3-3.3-.4-6.9-1-8-1.2-3.6-.9-42.8-1.1-49.5-.3z"/></svg>