<svg version="1" xmlns="http://www.w3.org/2000/svg" width="682.667" height="682.667" viewBox="0 0 512.000000 512.000000"><path d="M253.9.4c-.2.2-3.1.6-6.4 1-13.7 1.4-30.7 5-46 9.7C124.3 34.9 61.6 94.5 33.9 170.4c-10.8 29.7-15.4 57.1-15.3 91.1 0 22.5 2.2 42.1 6.5 58 .6 2.2 1.3 5.1 1.6 6.5.2 1.4 2.6 9.2 5.3 17.4 10 30 28.4 62.2 49.3 86.4 6.7 7.8 26.1 26.3 34 32.5 30.4 23.7 63.6 38.8 102.6 46.4 12.8 2.5 15.4 2.7 42.1 2.7 31.4.1 35.9-.5 60.6-6.9 74.4-19.4 136.3-76.7 161.2-149 6-17.5 10-35.4 11.9-52.5 1.5-13.9.8-47.6-1.1-59-.3-1.4-1-5.4-1.6-9-5.6-32.6-20.4-66.9-40.9-95-30.6-42.1-72.2-70.5-121.6-83.1-16.8-4.3-31.6-5.8-53.5-5.4-11.3.2-22.1.6-24 1-1.9.3-6 1-9 1.6-8.6 1.5-9.4 1.6-19.5 4.4-61.6 16.8-114 63.6-137.9 123.3-13.9 34.8-18.5 75.7-12.5 110.7.6 3.3 1.2 6.9 1.4 8 2.2 13.3 10 36.1 16.9 50.3 11.4 23 22.1 37.9 41 56.7 26.8 26.7 55.7 42.2 93.6 50.2 11.1 2.4 14.8 2.7 33 2.7 11.3.1 23-.3 26-.7 30.7-4.4 59.3-15.7 83.5-33.1 9.5-6.8 12.4-9.4 23.5-20.6 14.5-14.5 24.1-28 33.4-46.8 15.5-31.1 21.4-63.3 18.3-98.7-6-68.4-52.5-129.6-113.7-149.9-18.3-6-31.4-8.1-51-8.1-19.8.1-35.6 2.8-53 9.1-44.5 16-80.4 52.4-95.5 96.9-6.4 18.9-7.9 28.5-7.9 51.5 0 17.4.3 22 2.2 30.3 9.3 42.1 32 76.7 64.2 97.9 11 7.2 28.3 15 38.6 17.3 1 .2 5.3 1.2 9.4 2.1 11.6 2.6 37.4 2.4 50.7-.4 50.7-10.8 90.1-49 101.8-98.4 5-21.5 5-40 0-61.4-3.9-16.5-9.6-29.7-18.9-43.3-24.7-36.2-62.2-54.3-103.1-49.8-23.7 2.6-45.3 13-62.7 30.1-12 11.8-19.8 24.2-25.6 40.7-3 8.4-3.5 10.6-5.2 21.9-.8 5.5-.6 28.3.3 29.7.3.5.8 2.6 1.1 4.8 1 5.9 6.3 20.9 9.8 27.3 10.8 19.8 24.9 34 41.5 41.8 44.9 21 97.4-2.4 111.8-49.7 2.4-8 3-13.2 2.9-24.9-.1-20-6.8-36.8-20.9-52.7-17.1-19.2-46.7-23.8-69.2-10.8-10.8 6.3-21 19.8-24.8 32.7-1.7 6-2.3 17.6-1.2 24.1 2.7 15.6 13.9 31.4 25.4 35.7 20.1 7.5 40.9-7.5 39.7-28.7-.6-10-8.1-22.2-12.2-19.7-2.5 1.6-2.7 4.3-.4 6.7 5.8 6.4 7.1 16.1 3.3 24-6.5 13.5-23.3 16.8-34.3 6.9-9.1-8.1-14.9-21.3-14.9-33.5 0-11.2 2.1-18.3 8.1-27.6 13-20.2 41.7-27 62.8-14.9 15.1 8.6 27.2 27.1 30.9 47.3.9 5.1.9 19.8 0 25-1.9 10.4-5.7 19.6-11.7 28.5-19.6 28.9-56.3 39.9-89.1 26.5-19.4-7.9-37.9-28.5-46.7-52-9.9-26.5-6.7-59.6 8-84.1 5-8.4 7-10.9 15.6-19.7 11.5-11.8 26.3-20.5 42.9-25.2 23.9-6.8 48.8-4.5 70.8 6.6 11.3 5.7 18.7 11.3 28.3 21.3 17.1 17.8 28.1 39.8 32.6 64.8 1.4 7.9 1.6 33.2.3 39.8-.3 1.4-.8 4.3-1.2 6.5-1.3 7.7-5.7 20.1-10.7 30.1-11.5 23.4-31.8 43.8-55.3 55.7-8.8 4.4-22.6 9.3-30.2 10.6-3.2.6-6.9 1.4-8.3 1.7-1.4.3-8.1.7-15 .8-44.2 1.2-83.1-19.9-109.9-59.5-23.8-35.3-31.2-82.2-19.5-123.4 11.8-41.5 40.4-76 78.5-94.6 31.8-15.5 67-19.6 100.9-11.6 63.7 15.1 112.7 72.3 122.1 142.3 10 74.9-31 149.3-100.1 181.8-15 7-25.1 10.1-50.5 15.2-1.6.3-11.1.7-21 .9-23.3.5-40.3-2.1-60.8-9.2-44.1-15.2-81.4-48.6-104.1-93.3-26.9-52.7-29.1-115.5-6.1-169.5 16.4-38.3 42.3-68.9 77.5-91.8 24.8-16 54.1-26.6 84.5-30.4 7.5-1 40.1-1 47.5-.1 10.1 1.3 25.9 4.6 34.5 7.3 3.3 1 6.5 1.9 7 2.1 3 .6 17.7 7 26.2 11.3 48 24.1 87.3 70.2 105.9 124.3 2.7 7.8 7.9 28.1 8.8 33.8.2 1.9 1 7.3 1.7 12s1.3 16.6 1.3 26.5c.1 16.1-.3 22.1-1.8 33.3-.3 1.8-.8 5.2-1.1 7.5-1.1 7.7-7.2 30-11 40.2-20 53.7-61.1 99-113 124.5-41.5 20.4-87.6 27.6-133.4 21-48.1-7-93.4-30-128.1-65-41-41.3-64.9-91.4-72.3-151-1.4-10.8-1.5-44.4-.2-53.5.3-2.8.8-6.1 1-7.5.7-5 1.7-11.5 2.2-13.5.2-1.1.7-3.4.9-5 .3-1.7 1.9-7.8 3.5-13.7C52.6 125.2 99 67.8 162.3 35c17.5-9.1 31.1-14.4 49.2-19.3 10.8-3 23.5-5.8 28.4-6.3 2-.2 5.4-.6 7.6-.9 18.2-2.3 48.8-2.3 62.5-.1 1.4.3 5.9 1 10 1.6 45 7 91.2 29.2 126.3 60.6 12.4 11 13.1 11.6 14.9 10.9 3.8-1.5 2.7-4.4-3.9-10.7-8.8-8.4-7.9-7.6-15.8-14-37.7-30-75.7-46.4-129-55.4-4.2-.7-57.9-1.6-58.6-1z"/></svg>